<mxfile host="65bd71144e">
    <diagram id="4FF9GRGf_yK6gMA6PxLo" name="steps">
        <mxGraphModel dx="532" dy="313" grid="1" gridSize="10" guides="1" tooltips="1" connect="1" arrows="1" fold="1" page="1" pageScale="1" pageWidth="850" pageHeight="1100" math="0" shadow="0">
            <root>
                <mxCell id="0"/>
                <mxCell id="1" parent="0"/>
                <mxCell id="2" value="" style="edgeStyle=none;html=1;strokeWidth=3;fontSize=17;fontColor=#FFFFFF;" edge="1" parent="1" source="3" target="7">
                    <mxGeometry relative="1" as="geometry"/>
                </mxCell>
                <mxCell id="3" value="&lt;span style=&quot;font-size: 21px;&quot;&gt;&lt;b&gt;تحديد البيانات&lt;/b&gt;&lt;/span&gt;" style="rounded=0;whiteSpace=wrap;html=1;fillColor=#000000;fontColor=#ffffff;strokeColor=#006EAF;" vertex="1" parent="1">
                    <mxGeometry x="230" y="150" width="120" height="60" as="geometry"/>
                </mxCell>
                <mxCell id="4" value="" style="edgeStyle=none;html=1;strokeWidth=3;fontSize=17;fontColor=#FFFFFF;" edge="1" parent="1" source="5" target="8">
                    <mxGeometry relative="1" as="geometry"/>
                </mxCell>
                <mxCell id="5" value="&lt;span style=&quot;font-size: 21px;&quot;&gt;&lt;b&gt;عمل التنسيقات&lt;/b&gt;&lt;/span&gt;" style="rounded=0;whiteSpace=wrap;html=1;fillColor=#000000;fontColor=#ffffff;strokeColor=#006EAF;" vertex="1" parent="1">
                    <mxGeometry x="230" y="360" width="120" height="60" as="geometry"/>
                </mxCell>
                <mxCell id="6" value="" style="edgeStyle=none;html=1;strokeWidth=3;fontSize=17;fontColor=#FFFFFF;" edge="1" parent="1" source="7" target="5">
                    <mxGeometry relative="1" as="geometry"/>
                </mxCell>
                <mxCell id="7" value="&lt;span style=&quot;font-size: 21px;&quot;&gt;&lt;b&gt;تحديد ال&lt;br&gt;widget&lt;br&gt;&lt;/b&gt;&lt;/span&gt;" style="rounded=0;whiteSpace=wrap;html=1;fillColor=#000000;fontColor=#ffffff;strokeColor=#006EAF;" vertex="1" parent="1">
                    <mxGeometry x="230" y="260" width="120" height="60" as="geometry"/>
                </mxCell>
                <mxCell id="8" value="&lt;span style=&quot;font-size: 21px;&quot;&gt;&lt;b&gt;إضافة التفاعل&lt;/b&gt;&lt;/span&gt;" style="rounded=0;whiteSpace=wrap;html=1;fillColor=#000000;fontColor=#ffffff;strokeColor=#006EAF;" vertex="1" parent="1">
                    <mxGeometry x="230" y="460" width="120" height="60" as="geometry"/>
                </mxCell>
                <mxCell id="9" value="" style="edgeStyle=none;html=1;strokeWidth=3;fontSize=12;fontColor=#FFFFFF;" edge="1" parent="1" source="10" target="3">
                    <mxGeometry relative="1" as="geometry"/>
                </mxCell>
                <mxCell id="10" value="&lt;span style=&quot;font-size: 21px;&quot;&gt;&lt;b&gt;عمل مخطط لتفاعلات الصفحة&lt;/b&gt;&lt;/span&gt;" style="rounded=0;whiteSpace=wrap;html=1;fillColor=#000000;fontColor=#ffffff;strokeColor=#006EAF;" vertex="1" parent="1">
                    <mxGeometry x="230" y="50" width="120" height="60" as="geometry"/>
                </mxCell>
            </root>
        </mxGraphModel>
    </diagram>
    <diagram id="yE_Z2NDeWE3O7scXdLIJ" name="activity">
        <mxGraphModel dx="532" dy="313" grid="1" gridSize="10" guides="1" tooltips="1" connect="1" arrows="1" fold="1" page="1" pageScale="1" pageWidth="850" pageHeight="1100" math="0" shadow="0">
            <root>
                <mxCell id="0"/>
                <mxCell id="1" parent="0"/>
                <mxCell id="52_VhQYdrrpI22lVIsnJ-1" value="" style="edgeStyle=none;html=1;strokeWidth=3;fontSize=17;fontColor=#FFFFFF;startArrow=none;" edge="1" parent="1" source="52_VhQYdrrpI22lVIsnJ-8" target="52_VhQYdrrpI22lVIsnJ-4">
                    <mxGeometry relative="1" as="geometry"/>
                </mxCell>
                <mxCell id="52_VhQYdrrpI22lVIsnJ-14" style="edgeStyle=none;html=1;exitX=1;exitY=1;exitDx=0;exitDy=0;entryX=0.377;entryY=-0.011;entryDx=0;entryDy=0;entryPerimeter=0;strokeWidth=3;" edge="1" parent="1" source="52_VhQYdrrpI22lVIsnJ-2" target="52_VhQYdrrpI22lVIsnJ-13">
                    <mxGeometry relative="1" as="geometry"/>
                </mxCell>
                <mxCell id="52_VhQYdrrpI22lVIsnJ-2" value="&lt;b style=&quot;&quot;&gt;&lt;span style=&quot;font-size: 21px;&quot;&gt;Start Onboarding&lt;/span&gt;&lt;br&gt;&lt;font style=&quot;font-size: 9px;&quot;&gt;(stateless)&lt;/font&gt;&lt;br&gt;&lt;/b&gt;" style="rounded=0;whiteSpace=wrap;html=1;fillColor=#1ba1e2;fontColor=#ffffff;strokeColor=#006EAF;" vertex="1" parent="1">
                    <mxGeometry x="200" y="130" width="120" height="80" as="geometry"/>
                </mxCell>
                <mxCell id="52_VhQYdrrpI22lVIsnJ-4" value="&lt;span style=&quot;font-size: 21px;&quot;&gt;&lt;b&gt;change page&lt;/b&gt;&lt;/span&gt;" style="rounded=0;whiteSpace=wrap;html=1;fillColor=#1ba1e2;fontColor=#ffffff;strokeColor=#006EAF;" vertex="1" parent="1">
                    <mxGeometry x="40" y="280" width="120" height="60" as="geometry"/>
                </mxCell>
                <mxCell id="52_VhQYdrrpI22lVIsnJ-7" value="&lt;span style=&quot;font-size: 21px;&quot;&gt;&lt;b&gt;Activity&lt;/b&gt;&lt;/span&gt;" style="rounded=0;whiteSpace=wrap;html=1;fillColor=#a20025;fontColor=#ffffff;strokeColor=#6F0000;" vertex="1" parent="1">
                    <mxGeometry x="200" y="30" width="120" height="60" as="geometry"/>
                </mxCell>
                <mxCell id="52_VhQYdrrpI22lVIsnJ-9" value="" style="edgeStyle=none;html=1;strokeWidth=3;fontSize=17;fontColor=#FFFFFF;endArrow=none;" edge="1" parent="1" source="52_VhQYdrrpI22lVIsnJ-2" target="52_VhQYdrrpI22lVIsnJ-8">
                    <mxGeometry relative="1" as="geometry">
                        <mxPoint x="214.28571428571433" y="210" as="sourcePoint"/>
                        <mxPoint x="134.28571428571433" y="280" as="targetPoint"/>
                    </mxGeometry>
                </mxCell>
                <mxCell id="52_VhQYdrrpI22lVIsnJ-8" value="&lt;font size=&quot;1&quot; style=&quot;&quot;&gt;&lt;b style=&quot;font-size: 12px;&quot;&gt;Next Btn&lt;/b&gt;&lt;/font&gt;" style="rounded=0;whiteSpace=wrap;html=1;fillColor=#d80073;fontColor=#ffffff;strokeColor=#A50040;" vertex="1" parent="1">
                    <mxGeometry x="135" y="240" width="65" height="20" as="geometry"/>
                </mxCell>
                <mxCell id="52_VhQYdrrpI22lVIsnJ-13" value="&lt;span style=&quot;font-size: 21px;&quot;&gt;&lt;b&gt;go to home page&lt;/b&gt;&lt;/span&gt;" style="rounded=0;whiteSpace=wrap;html=1;fillColor=#1ba1e2;fontColor=#ffffff;strokeColor=#006EAF;" vertex="1" parent="1">
                    <mxGeometry x="330" y="280" width="120" height="60" as="geometry"/>
                </mxCell>
                <mxCell id="52_VhQYdrrpI22lVIsnJ-15" value="&lt;font size=&quot;1&quot; style=&quot;&quot;&gt;&lt;b style=&quot;font-size: 12px;&quot;&gt;Finish Btn&lt;/b&gt;&lt;/font&gt;" style="rounded=0;whiteSpace=wrap;html=1;fillColor=#d80073;fontColor=#ffffff;strokeColor=#A50040;" vertex="1" parent="1">
                    <mxGeometry x="350" y="220" width="65" height="20" as="geometry"/>
                </mxCell>
                <mxCell id="52_VhQYdrrpI22lVIsnJ-16" value="&lt;font size=&quot;1&quot; style=&quot;&quot;&gt;&lt;b style=&quot;font-size: 12px;&quot;&gt;Skip Btn&lt;/b&gt;&lt;/font&gt;" style="rounded=0;whiteSpace=wrap;html=1;fillColor=#d80073;fontColor=#ffffff;strokeColor=#A50040;" vertex="1" parent="1">
                    <mxGeometry x="285" y="240" width="65" height="20" as="geometry"/>
                </mxCell>
            </root>
        </mxGraphModel>
    </diagram>
</mxfile>